<svg id="Layer_1" data-name="Layer 1" xmlns="http://www.w3.org/2000/svg" viewBox="0 0 148.15 9"><defs><style>.cls-1{fill:#231f20;}</style></defs><path class="cls-1" d="M9.75,4.9l-3,4.86A5.33,5.33,0,0,1,6,10a5.46,5.46,0,0,1-.82.06,4.09,4.09,0,0,1-1-.11,4.52,4.52,0,0,1-1.44-.57,4.65,4.65,0,0,1-1.13-1A4.52,4.52,0,0,1,.84,7,4.41,4.41,0,0,1,.57,5.46,4.36,4.36,0,0,1,.93,3.68a4.23,4.23,0,0,1,1-1.41,4.49,4.49,0,0,1,1.47-.93A4.88,4.88,0,0,1,5.21,1a4.29,4.29,0,0,1,1.07.13,4.77,4.77,0,0,1,1,.36,5.24,5.24,0,0,1,.91.59,3.85,3.85,0,0,1,.73.78,3.73,3.73,0,0,1,.59,1.2H7.06a2.28,2.28,0,0,0-.8-.83,2.1,2.1,0,0,0-1.11-.3,2.18,2.18,0,0,0-1,.21,2.19,2.19,0,0,0-.75.54A2.54,2.54,0,0,0,3,4.5a2.63,2.63,0,0,0-.17,1,3.05,3.05,0,0,0,.16,1,2.57,2.57,0,0,0,.48.82,2.19,2.19,0,0,0,.74.57,2.25,2.25,0,0,0,1,.21H5.4l.95-1.38H4.65V4.9h5.1Z" transform="translate(-0.57 -1.01)"/><path class="cls-1" d="M10.3,1h5V3H12.5v1.4H14v2H12.5V8h2.78v2h-5Z" transform="translate(-0.57 -1.01)"/><path class="cls-1" d="M23.33,1v9h-2L17.92,4.54l0,0L18,10h-2.2V1h2l3.48,5.62h0L21.17,3H19.84V1h3.49Z" transform="translate(-0.57 -1.01)"/><path class="cls-1" d="M23.85,1h5V3H26v1.4h1.48v2H26V8h2.79v2h-5Z" transform="translate(-0.57 -1.01)"/><path class="cls-1" d="M30.34,5.54h1.93a2.73,2.73,0,0,0,.59-.07,1.32,1.32,0,0,0,.48-.22,1.13,1.13,0,0,0,.32-.4,1.44,1.44,0,0,0,.11-.59,1.26,1.26,0,0,0-.12-.57,1,1,0,0,0-.32-.37,1.3,1.3,0,0,0-.48-.21A2,2,0,0,0,32.3,3h-3V1h3.56a5.85,5.85,0,0,1,.72.07,3.46,3.46,0,0,1,.7.19,2.84,2.84,0,0,1,.63.36,2.83,2.83,0,0,1,.83,1.11A3.3,3.3,0,0,1,36,4.13a3.21,3.21,0,0,1-.15,1,2.74,2.74,0,0,1-.44.85,2.51,2.51,0,0,1-.7.64,2.46,2.46,0,0,1-.94.34L36.16,10H33.54Z" transform="translate(-0.57 -1.01)"/><path class="cls-1" d="M45.3,1v9H43V4.4h0L39.6,10H36.84L43,1Z" transform="translate(-0.57 -1.01)"/><path class="cls-1" d="M49.88,1V3H48.1v7H45.81V1Z" transform="translate(-0.57 -1.01)"/><path class="cls-1" d="M50.36,1h5V3H52.55v1.4H54v2H52.55V8h2.79v2h-5Z" transform="translate(-0.57 -1.01)"/><path class="cls-1" d="M69.39,1v9h-2L64,4.54l0,0L64,10H61.82V1h2l3.48,5.62h0L67.23,3H65.9V1h3.49Z" transform="translate(-0.57 -1.01)"/><path class="cls-1" d="M69.9,1h5V3H72.1v1.4h1.48v2H72.1V8h2.78v2h-5Z" transform="translate(-0.57 -1.01)"/><path class="cls-1" d="M75.38,10V1h2.3V6.64h0L81,1.11V6.64h0L84.41,1h2.77L81,10H78.71V8.46l-1,1.55Z" transform="translate(-0.57 -1.01)"/><path class="cls-1" d="M93.75,1H96V8h2.68v2h-5Z" transform="translate(-0.57 -1.01)"/><path class="cls-1" d="M99.28,1h2.29v9H99.28Z" transform="translate(-0.57 -1.01)"/><path class="cls-1" d="M104.31,3v1.4h1.46v2h-1.46V10H102.1V1h5V3Z" transform="translate(-0.57 -1.01)"/><path class="cls-1" d="M107.56,1h5V3h-2.78v1.4h1.47v2h-1.47V8h2.78v2h-5Z" transform="translate(-0.57 -1.01)"/><path class="cls-1" d="M115.22,3v1.4h1.46v2h-1.46V10H113V1h5V3Z" transform="translate(-0.57 -1.01)"/><path class="cls-1" d="M123,10a4.66,4.66,0,0,1-1.75-.33,4.74,4.74,0,0,1-1.45-.93,4.39,4.39,0,0,1-1-1.41,4.09,4.09,0,0,1-.37-1.74,4.8,4.8,0,0,1,.35-1.85,3.35,3.35,0,0,1,.56-1A4.31,4.31,0,0,1,121,1.46,4.68,4.68,0,0,1,123.05,1a4.78,4.78,0,0,1,1.78.34,4.55,4.55,0,0,1,1.46.95,4.47,4.47,0,0,1,1,1.43,4.39,4.39,0,0,1,.36,1.78,4.47,4.47,0,0,1-2.81,4.16A4.67,4.67,0,0,1,123,10Zm0-7.07a2.31,2.31,0,0,0-1.71.76,2.56,2.56,0,0,0-.47.8,2.88,2.88,0,0,0-.17,1,2.94,2.94,0,0,0,.17,1,2.4,2.4,0,0,0,.48.82,2.46,2.46,0,0,0,.75.56,2.31,2.31,0,0,0,1,.21,2.17,2.17,0,0,0,1-.21,2.26,2.26,0,0,0,.73-.57,2.63,2.63,0,0,0,.48-.81,2.85,2.85,0,0,0,.17-1,2.81,2.81,0,0,0-.17-1,2.73,2.73,0,0,0-.48-.83,2.33,2.33,0,0,0-.75-.57A2.22,2.22,0,0,0,123.05,2.94Z" transform="translate(-0.57 -1.01)"/><path class="cls-1" d="M136.43,10h-2.64l-3.22-4.47h2a1.8,1.8,0,0,0,1.07-.3,1.09,1.09,0,0,0,.43-1,1.26,1.26,0,0,0-.12-.57,1.1,1.1,0,0,0-.33-.38,1.56,1.56,0,0,0-.47-.21,2.62,2.62,0,0,0-.57-.06h-2.15v7h-2.29V1h5a5.87,5.87,0,0,1,.72.08,5.56,5.56,0,0,1,.7.19,2.57,2.57,0,0,1,.62.36,2.76,2.76,0,0,1,.83,1.11,3.36,3.36,0,0,1,.29,1.36,3.3,3.3,0,0,1-.15,1,2.74,2.74,0,0,1-.44.85,2.57,2.57,0,0,1-.71.64,2.62,2.62,0,0,1-1,.34Z" transform="translate(-0.57 -1.01)"/><path class="cls-1" d="M140.26,2.55V1h2.28l6.18,9H146L142.57,4.4h0V9.92L139.24,4.4h0V10h-2.3V1h2.28Z" transform="translate(-0.57 -1.01)"/></svg>