<svg xmlns="http://www.w3.org/2000/svg" viewBox="0 0 625.72 257.26"><defs><style>.cls-1{isolation:isolate;}.cls-2{fill:#171e35;}.cls-3{mix-blend-mode:overlay;}.cls-4,.cls-5,.cls-6{fill:#e0e0e0;}.cls-4{opacity:0.5;}.cls-6{opacity:0.7;}</style></defs><g class="cls-1"><g id="Layer_1" data-name="Layer 1"><rect class="cls-2" width="625.72" height="257.26"/><g class="cls-3"><polygon class="cls-4" points="472.21 134.68 504.71 114.91 537.21 134.68 537.21 174.23 504.71 194 472.21 174.23 472.21 134.68"/><polygon class="cls-5" points="435.32 197.94 468.52 178.16 501.71 197.94 501.71 237.48 468.52 257.26 435.32 237.48 435.32 197.94"/><polygon class="cls-5" points="146.74 122.11 179.7 102.33 212.66 122.11 212.66 161.66 179.7 181.43 146.74 161.66 146.74 122.11"/><polygon class="cls-5" points="110.78 183.69 143.74 163.92 176.7 183.69 176.7 223.24 143.74 243.01 110.78 223.24 110.78 183.69"/><path class="cls-5" d="M144.89,40.08,178.09,60V99.82l-33.2,19.91L111.7,99.82V60Zm32.73,20.19L144.89,40.64,112.16,60.27V99.54l32.73,19.64,32.73-19.64Z"/><polygon class="cls-5" points="42.09 59.36 75.28 39.59 108.47 59.36 108.47 98.91 75.28 118.68 42.09 98.91 42.09 59.36"/><polygon class="cls-5" points="6.59 122.11 39.55 102.33 72.52 122.11 72.52 161.66 39.55 181.43 6.59 161.66 6.59 122.11"/><polygon class="cls-5" points="42.09 184.08 75.05 164.31 108.01 184.08 108.01 223.63 75.05 243.4 42.09 223.63 42.09 184.08"/><polygon class="cls-5" points="76.67 121.72 109.86 101.95 143.05 121.72 143.05 161.27 109.86 181.04 76.67 161.27 76.67 121.72"/><path class="cls-5" d="M433.25,114.63l33,19.91v39.83l-33,19.91-33-19.91V134.54Zm32.5,20.19-32.5-19.64-32.5,19.64v39.27l32.5,19.63,32.5-19.63Z"/><path class="cls-5" d="M377.47,122.38l18.67,11.39v22.78l-18.67,11.39L358.8,156.55V133.77Zm18.21,11.67-18.21-11.11-18.21,11.11v22.22l18.21,11.12,18.21-11.12Z"/><polygon class="cls-5" points="200.21 86.82 218.88 75.56 237.56 86.82 237.56 109.32 218.88 120.57 200.21 109.32 200.21 86.82"/><polygon class="cls-5" points="91.88 21.74 110.78 10.49 129.68 21.74 129.68 44.25 110.78 55.5 91.88 44.25 91.88 21.74"/><polygon class="cls-5" points="317.31 134.68 335.98 123.43 354.65 134.68 354.65 157.19 335.98 168.44 317.31 157.19 317.31 134.68"/><polygon class="cls-4" points="505.4 88.52 524.07 77.27 542.74 88.52 542.74 111.02 524.07 122.27 505.4 111.02 505.4 88.52"/><path class="cls-5" d="M565.79,77l18.9,11.39v22.78l-18.9,11.39-18.9-11.39V88.38Zm18.44,11.67L565.79,77.54,547.35,88.66v22.22L565.79,122l18.44-11.11Z"/><polygon class="cls-5" points="568.09 125.07 586.76 113.81 605.43 125.07 605.43 147.57 586.76 158.82 568.09 147.57 568.09 125.07"/><path class="cls-5" d="M566.25,149.6,585.15,161v22.79l-18.9,11.39-18.9-11.39V161Zm18.44,11.67-18.44-11.11-18.44,11.11V183.5l18.44,11.11,18.44-11.11Z"/><polygon class="cls-5" points="588.38 161.13 607.05 149.88 625.72 161.13 625.72 183.64 607.05 194.89 588.38 183.64 588.38 161.13"/><polygon class="cls-5" points="527.52 51.97 546.2 40.72 564.87 51.97 564.87 74.47 546.2 85.72 527.52 74.47 527.52 51.97"/><path class="cls-5" d="M321.46,83.42l18.9,11.39v22.78L321.46,129l-18.9-11.39V94.81ZM339.9,95.09,321.46,84,303,95.09v22.23l18.44,11.11,18.44-11.11Z"/><polygon class="cls-6" points="338.05 172.25 356.72 161 375.39 172.25 375.39 194.76 356.72 206.01 338.05 194.76 338.05 172.25"/><polygon class="cls-5" points="286.42 172.46 309.93 158.48 333.44 172.46 333.44 200.43 309.93 214.41 286.42 200.43 286.42 172.46"/><polygon class="cls-5" points="241.7 82.21 264.98 68.23 288.26 82.21 288.26 110.18 264.98 124.17 241.7 110.18 241.7 82.21"/><polygon class="cls-4" points="265.68 126.49 288.73 112.5 311.78 126.49 311.78 154.46 288.73 168.44 265.68 154.46 265.68 126.49"/><path class="cls-5" d="M240.32,112.5l.12.07,23.39,14.05v28.24l-.11.07L240.32,169l-.11-.07-23.4-14.06V126.62l.12-.07Zm23.05,14.4-23.05-13.85-23,13.85v27.69l23,13.84,23.05-13.84Z"/><polygon class="cls-5" points="282.95 69.08 288.53 72.93 287.77 74.13 282.19 70.28 282.95 69.08"/><polygon class="cls-5" points="273.62 62.64 279.5 66.7 278.74 67.9 272.86 63.85 273.62 62.64"/><polygon class="cls-5" points="264.21 56.15 270.17 60.27 269.41 61.47 264.22 57.89 259.06 61.52 258.28 60.32 264.21 56.15"/><polygon class="cls-5" points="254.25 63.15 255.03 64.35 248.15 69.18 247.38 67.98 254.25 63.15"/><polygon class="cls-5" points="243.35 70.82 244.12 72.01 238.25 76.14 231.83 73.05 232.4 71.74 238.12 74.49 243.35 70.82"/><polygon class="cls-5" points="218.14 64.9 224.53 67.96 223.95 69.27 218.19 66.51 212.62 69.67 211.96 68.4 218.14 64.9"/><polygon class="cls-5" points="199.53 75.47 200.19 76.75 194.68 79.85 194.68 86.44 193.3 86.44 193.3 78.99 199.53 75.47"/><polygon class="cls-5" points="193.3 96.54 194.68 96.54 194.68 105.31 188.4 99.72 189.3 98.63 193.3 102.19 193.3 96.54"/><polygon class="cls-5" points="182.69 87.4 184.08 87.4 184.08 94.22 188.97 98.36 188.09 99.48 182.69 94.91 182.69 87.4"/><rect class="cls-5" x="182.7" y="67.2" width="1.38" height="12.98"/><polygon class="cls-5" points="177.93 48.59 184.08 52.36 184.08 59.51 182.69 59.51 182.69 53.19 177.23 49.83 177.93 48.59"/><path class="cls-5" d="M149.37,31.75l9,5.35-.68,1.25-9-5.34Zm14.28,8.48,9,5.34L172,46.82l-9-5.34Z"/><polygon class="cls-5" points="132.41 10.89 138.88 14.05 138.64 25.39 144.1 28.62 143.41 29.88 137.24 26.21 137.47 14.96 131.83 12.2 132.41 10.89"/><polygon class="cls-5" points="120.72 5.2 128.09 8.79 127.51 10.1 120.14 6.5 120.72 5.2"/><polygon class="cls-5" points="110.06 0 116.4 3.09 115.82 4.4 110.05 1.59 104.25 4.33 103.68 3.02 110.06 0"/><polygon class="cls-5" points="90.96 9.04 91.54 10.35 85.85 13.04 85.78 19.56 84.39 19.54 84.47 12.11 90.96 9.04"/><polygon class="cls-5" points="84.32 26.27 85.7 26.29 85.61 34.4 75.04 29.01 69.42 32.05 68.78 30.77 75.03 27.4 84.25 32.1 84.32 26.27"/><polygon class="cls-5" points="61.17 34.88 61.8 36.16 48.81 43.17 48.18 41.89 61.17 34.88"/><polygon class="cls-5" points="40.55 45.91 41.21 47.18 35.63 50.28 35.63 56.62 34.25 56.62 34.25 49.41 40.55 45.91"/><rect class="cls-5" x="34.25" y="64.8" width="1.38" height="13.47"/><polygon class="cls-5" points="34.25 85.96 35.63 85.96 35.63 93.54 29.56 97.24 28.86 95.99 34.25 92.71 34.25 85.96"/><polygon class="cls-5" points="22.62 100 23.33 101.23 12.68 107.89 11.97 106.65 22.62 100"/><polygon class="cls-5" points="5.73 110.56 6.44 111.8 0.71 115.38 0 114.14 5.73 110.56"/><polygon class="cls-5" points="289.5 68.94 293.45 77.18 284.64 76.63 289.5 68.94"/></g></g></g></svg>