<svg id="Layer_1" data-name="Layer 1" xmlns="http://www.w3.org/2000/svg" viewBox="0 0 86.18 9"><defs><style>.cls-1{fill:#231f20;}</style></defs><path class="cls-1" d="M3.38,9.7a4.06,4.06,0,0,1-1.23-.18,2.9,2.9,0,0,1-1-.51,2.36,2.36,0,0,1-.67-.86A2.87,2.87,0,0,1,.25,6.94V6.67h2.2a1.54,1.54,0,0,0,0,.43,1.61,1.61,0,0,0,.16.38.9.9,0,0,0,.28.27.93.93,0,0,0,.42.1A.85.85,0,0,0,4,7.61.79.79,0,0,0,4.21,7a.74.74,0,0,0-.08-.36.72.72,0,0,0-.21-.25,1.17,1.17,0,0,0-.3-.19l-.35-.15-.39-.17-.39-.15a7.53,7.53,0,0,1-.8-.41A2.89,2.89,0,0,1,1,4.82a2.27,2.27,0,0,1-.46-.68,2.08,2.08,0,0,1-.18-.89A2.11,2.11,0,0,1,.65,2.17a2.32,2.32,0,0,1,.69-.8,3.3,3.3,0,0,1,1-.5A3.48,3.48,0,0,1,3.42.7,3.66,3.66,0,0,1,4.7.94a2.72,2.72,0,0,1,1.07.73,2.29,2.29,0,0,1,.43.81,4.08,4.08,0,0,1,.13.92H4.14a1.27,1.27,0,0,0-.21-.62.65.65,0,0,0-.58-.24.89.89,0,0,0-.54.19.59.59,0,0,0-.24.5.72.72,0,0,0,.09.37A1,1,0,0,0,3,3.87l.5.27L4,4.39l.39.17c.29.13.55.27.8.41a3,3,0,0,1,.64.51,2.26,2.26,0,0,1,.43.67A2.4,2.4,0,0,1,6.41,7a2.75,2.75,0,0,1-.24,1.19,2.34,2.34,0,0,1-.63.82,2.57,2.57,0,0,1-1,.49A4.58,4.58,0,0,1,3.38,9.7Z" transform="translate(-0.25 -0.7)"/><path class="cls-1" d="M6.89.71H9.17l6.16,9H12.59l-.8-1.3H9.18V9.7H6.89ZM10.7,6.58,9.21,4.07h0V6.58Z" transform="translate(-0.25 -0.7)"/><path class="cls-1" d="M11.05.7H13.8l3.37,5.61h0V.7H19.5v9H17.22Z" transform="translate(-0.25 -0.7)"/><path class="cls-1" d="M20,.7h5v2H22.16V4.12h1.48v2H22.16V7.68H25v2H20Z" transform="translate(-0.25 -0.7)"/><path class="cls-1" d="M31.46.7h2.29v7h2.68v2h-5Z" transform="translate(-0.25 -0.7)"/><path class="cls-1" d="M37,.7h2.3v9H37Z" transform="translate(-0.25 -0.7)"/><path class="cls-1" d="M42,2.71V4.12h1.46v2H42V9.7H39.81V.7h5v2Z" transform="translate(-0.25 -0.7)"/><path class="cls-1" d="M45.27.7h5v2H47.47V4.12H49v2H47.47V7.68h2.78v2h-5Z" transform="translate(-0.25 -0.7)"/><path class="cls-1" d="M52.93,2.71V4.12h1.46v2H52.93V9.7H50.72V.7h5v2Z" transform="translate(-0.25 -0.7)"/><path class="cls-1" d="M60.75,9.7A4.7,4.7,0,0,1,59,9.36a4.4,4.4,0,0,1-1.45-.93,4.34,4.34,0,0,1-1-1.4,4.13,4.13,0,0,1-.37-1.75,5,5,0,0,1,.35-1.85,3.93,3.93,0,0,1,.56-1,4.44,4.44,0,0,1,1.61-1.33A4.94,4.94,0,0,1,62.55,1a4.43,4.43,0,0,1,2.8,4.16A4.39,4.39,0,0,1,65,7a4.47,4.47,0,0,1-1,1.43,4.36,4.36,0,0,1-1.46.94A4.68,4.68,0,0,1,60.75,9.7Zm0-7.07a2.34,2.34,0,0,0-1,.2,2.43,2.43,0,0,0-.75.55,2.61,2.61,0,0,0-.47.81,2.83,2.83,0,0,0-.17,1,3,3,0,0,0,.17,1,2.35,2.35,0,0,0,.48.81,2.38,2.38,0,0,0,.76.56,2.24,2.24,0,0,0,1,.21,2.14,2.14,0,0,0,1-.21A2.41,2.41,0,0,0,62.49,7,2.66,2.66,0,0,0,63,6.15a2.8,2.8,0,0,0,0-1.92,2.5,2.5,0,0,0-.48-.82,2.33,2.33,0,0,0-.75-.57A2.18,2.18,0,0,0,60.77,2.63Z" transform="translate(-0.25 -0.7)"/><path class="cls-1" d="M74.14,9.7H71.5L68.29,5.22h1.94a1.93,1.93,0,0,0,1.08-.29,1.13,1.13,0,0,0,.42-1,1.2,1.2,0,0,0-.12-.57A1,1,0,0,0,71.29,3a1.3,1.3,0,0,0-.48-.21,2.12,2.12,0,0,0-.57-.07H68.1v7H65.8V.7h5a4.41,4.41,0,0,1,.72.08,3.29,3.29,0,0,1,.7.19,2.25,2.25,0,0,1,.62.35,3,3,0,0,1,.84,1.11,3.38,3.38,0,0,1,.28,1.36,3.21,3.21,0,0,1-.15,1,2.91,2.91,0,0,1-.44.86,2.53,2.53,0,0,1-.71.63,2.46,2.46,0,0,1-.94.34Z" transform="translate(-0.25 -0.7)"/><path class="cls-1" d="M78,2.23V.7h2.28l6.18,9H83.66L80.29,4.08h0V9.6L77,4.08h0V9.7H74.64V.7h2.28Z" transform="translate(-0.25 -0.7)"/></svg>