<?xml version="1.0" encoding="utf-8"?>
<!-- Generator: Adobe Illustrator 25.2.1, SVG Export Plug-In . SVG Version: 6.00 Build 0)  -->
<svg version="1.1" id="Layer_1" xmlns="http://www.w3.org/2000/svg" xmlns:xlink="http://www.w3.org/1999/xlink" x="0px" y="0px"
	 viewBox="0 0 494 75.3" style="enable-background:new 0 0 494 75.3;" xml:space="preserve">
<style type="text/css">
	.st0{fill:#7084C1;}
	.st1{fill:#FFFFFF;}
</style>
<g>
	<g>
		<path class="st0" d="M237.3,49.7l-12.4,20c-1,0.3-2,0.6-3.1,0.8c-1.1,0.2-2.2,0.3-3.4,0.3c-1.4,0-2.8-0.1-4.1-0.4
			c-2.1-0.5-4.1-1.2-5.9-2.4c-1.8-1.1-3.3-2.5-4.7-4.1c-1.3-1.6-2.3-3.4-3.1-5.4c-0.7-2-1.1-4.1-1.1-6.4c0-2.7,0.5-5.1,1.5-7.4
			c1-2.2,2.4-4.2,4.1-5.8c1.7-1.6,3.8-2.9,6.1-3.8c2.3-0.9,4.8-1.4,7.4-1.4c1.5,0,2.9,0.2,4.4,0.5c1.4,0.3,2.8,0.8,4.2,1.5
			c1.3,0.7,2.6,1.5,3.7,2.4c1.2,1,2.2,2,3,3.2c1.1,1.5,1.9,3.2,2.4,4.9h-5.8h-4.4c-0.9-1.5-2-2.6-3.3-3.4c-1.3-0.8-2.9-1.2-4.5-1.2
			c-1.4,0-2.8,0.3-4,0.8c-1.2,0.6-2.2,1.3-3.1,2.2c-0.9,0.9-1.5,2-2,3.3c-0.5,1.3-0.7,2.6-0.7,4c0,1.4,0.2,2.8,0.7,4.1
			c0.5,1.3,1.1,2.4,1.9,3.4c0.8,1,1.9,1.7,3.1,2.3c1.2,0.6,2.6,0.9,4.1,0.9c0.2,0,0.4,0,0.5,0c0.2,0,0.3,0,0.5,0l3.9-5.7h-7v-7.3h12
			H237.3z"/>
		<path class="st0" d="M239.6,33.7h20.5V42h-11.4v5.8h6.1v8.3h-6.1v6.3h11.4v8.3h-20.5V33.7z"/>
		<path class="st0" d="M271,48.2l-0.1,0.1l0.2,22.4h-9v-37h8.1l14.3,23.2l0.1,0l-0.4-23.1h9.1v37h-8.2L271,48.2z"/>
		<path class="st0" d="M295.3,33.7h20.5V42h-11.4v5.8h6.1v8.3h-6.1v6.3h11.4v8.3h-20.5V33.7z"/>
		<path class="st0" d="M351.9,70.7h-10.9l-13.2-18.4h8c1.8,0,3.2-0.4,4.4-1.2c1.2-0.8,1.8-2.2,1.8-4.1c0-0.9-0.2-1.7-0.5-2.3
			c-0.3-0.6-0.8-1.2-1.3-1.6c-0.6-0.4-1.2-0.7-1.9-0.9c-0.7-0.2-1.5-0.3-2.3-0.3h-3.5h-5.4v28.7h-9.4v-37h5.8h3.6h8.1
			c1,0,1.9,0,2.9,0c1,0,2,0.1,3,0.3c1,0.2,1.9,0.4,2.9,0.8c0.9,0.3,1.8,0.8,2.6,1.5c1.5,1.2,2.7,2.8,3.4,4.6
			c0.8,1.8,1.2,3.7,1.2,5.6c0,1.4-0.2,2.8-0.6,4.1c-0.4,1.3-1,2.5-1.8,3.5c-0.8,1-1.8,1.9-2.9,2.6c-1.2,0.7-2.5,1.2-3.9,1.4
			L351.9,70.7z"/>
		<path class="st0" d="M354,33.8h9.4l25.4,37h-11.3l-3.3-5.3h-10.8v5.3H354V33.8z M369.7,57.9l-6.1-10.3h-0.1v10.3H369.7z"/>
		<path class="st0" d="M407.3,70.7h-9.4V42h-7.3v-8.3h24V42h-7.3V70.7z"/>
		<path class="st0" d="M435.1,70.7c-2.5,0-4.9-0.5-7.2-1.4c-2.3-0.9-4.3-2.2-6-3.8c-1.7-1.6-3.1-3.6-4.1-5.8c-1-2.2-1.5-4.6-1.5-7.2
			c0-2.7,0.5-5.2,1.4-7.6c0.5-1.4,1.3-2.7,2.3-3.9c1.8-2.4,4-4.3,6.6-5.5c2.5-1.2,5.4-1.8,8.5-1.8c2.6,0,5,0.5,7.3,1.4
			c2.3,0.9,4.3,2.2,6,3.9c1.7,1.7,3.1,3.6,4,5.9c1,2.3,1.5,4.7,1.5,7.3s-0.5,5.1-1.5,7.3c-1,2.3-2.3,4.2-4,5.9c-1.7,1.7-3.7,3-6,3.9
			C440.1,70.2,437.7,70.7,435.1,70.7z M435.1,41.7c-1.4,0-2.8,0.3-4,0.8c-1.2,0.6-2.2,1.3-3.1,2.3s-1.5,2.1-1.9,3.3
			c-0.5,1.2-0.7,2.6-0.7,4c0,1.4,0.2,2.8,0.7,4.1c0.5,1.3,1.1,2.4,2,3.4s1.9,1.7,3.1,2.3c1.2,0.6,2.6,0.9,4,0.9
			c1.4,0,2.7-0.3,3.9-0.9c1.2-0.6,2.2-1.3,3-2.3c0.8-1,1.5-2.1,1.9-3.4c0.5-1.3,0.7-2.6,0.7-3.9c0-1.4-0.2-2.7-0.7-4
			c-0.5-1.3-1.1-2.4-2-3.4c-0.9-1-1.9-1.8-3.1-2.3C437.9,41.9,436.6,41.7,435.1,41.7z"/>
		<path class="st0" d="M490.1,70.7h-10.9l-13.2-18.4h8c1.8,0,3.2-0.4,4.4-1.2c1.2-0.8,1.8-2.2,1.8-4.1c0-0.9-0.2-1.7-0.5-2.3
			c-0.3-0.6-0.8-1.2-1.3-1.6c-0.6-0.4-1.2-0.7-1.9-0.9c-0.7-0.2-1.5-0.3-2.3-0.3h-3.5h-5.4v28.7h-9.4v-37h5.8h3.6h8.1
			c1,0,1.9,0,2.9,0c1,0,2,0.1,3,0.3c1,0.2,1.9,0.4,2.9,0.8c0.9,0.3,1.8,0.8,2.6,1.5c1.5,1.2,2.7,2.8,3.4,4.6
			c0.8,1.8,1.2,3.7,1.2,5.6c0,1.4-0.2,2.8-0.6,4.1c-0.4,1.3-1,2.5-1.8,3.5c-0.8,1-1.8,1.9-2.9,2.6c-1.2,0.7-2.5,1.2-3.9,1.4
			L490.1,70.7z"/>
	</g>
	<g>
		<path class="st1" d="M36,4.9v37h-9.4V18.8h-0.1L12.5,41.9H1.2l25.4-37H36z"/>
		<path class="st1" d="M38.2,4.9h9.4v28.7h11v8.3H38.2V4.9z"/>
		<path class="st1" d="M75.1,13.2v20.4h4.9v8.3h-4.9H71h-5h-0.4h-4.9v-8.3h4.9V13.2h-4.9V4.9h4.9h9.5h4.9v8.3H75.1z"/>
		<path class="st1" d="M82,4.9h20.5v8.3H91.1V19h6.1v8.3h-6.1v6.3h11.4v8.3H82V4.9z"/>
		<path class="st1" d="M135.6,5v8.2v28.7h-8.2l-14.1-22.5l-0.1,0.1l0.2,22.4h-9V5h8.1l14.3,23.1l0.1,0l-0.2-14.9h-0.5h-4.9V5h4.9
			h0.4H135.6z"/>
		<path class="st1" d="M162.7,4.9h9.4v28.7h11v8.3h-20.4V4.9z"/>
		<path class="st1" d="M199.6,13.2v20.4h4.9v8.3h-4.9h-4.1h-5h-0.4h-4.9v-8.3h4.9V13.2h-4.9V4.9h4.9h9.5h4.9v8.3H199.6z"/>
		<path class="st1" d="M215.6,13.2V19h6v8.3h-6v14.7h-9.1v-37h20.5v8.3H215.6z"/>
		<path class="st1" d="M229,4.9h20.5v8.3H238V19h6.1v8.3H238v6.3h11.4v8.3H229V4.9z"/>
		<path class="st1" d="M260.5,13.2V19h6v8.3h-6v14.7h-9.1v-37h20.5v8.3H260.5z"/>
		<path class="st1" d="M292.7,41.9c-2.5,0-4.9-0.5-7.2-1.4c-2.3-0.9-4.3-2.2-6-3.8c-1.7-1.6-3.1-3.6-4.1-5.8c-1-2.2-1.5-4.6-1.5-7.2
			c0-2.7,0.5-5.2,1.4-7.6c0.5-1.4,1.3-2.7,2.3-3.9c1.8-2.4,4-4.3,6.6-5.5c2.5-1.2,5.4-1.8,8.5-1.8c2.6,0,5,0.5,7.3,1.4
			c2.3,0.9,4.3,2.2,6,3.9c1.7,1.7,3.1,3.6,4,5.9c1,2.3,1.5,4.7,1.5,7.3c0,2.6-0.5,5.1-1.5,7.3c-1,2.3-2.3,4.2-4,5.9
			c-1.7,1.7-3.7,3-6,3.9C297.7,41.5,295.3,41.9,292.7,41.9z M292.7,12.9c-1.4,0-2.8,0.3-4,0.8c-1.2,0.6-2.2,1.3-3.1,2.3
			c-0.8,1-1.5,2.1-1.9,3.3c-0.5,1.2-0.7,2.6-0.7,4c0,1.4,0.2,2.8,0.7,4.1c0.5,1.3,1.1,2.4,2,3.4c0.9,1,1.9,1.7,3.1,2.3
			c1.2,0.6,2.6,0.9,4,0.9c1.4,0,2.7-0.3,3.9-0.9c1.2-0.6,2.2-1.3,3-2.3c0.8-1,1.5-2.1,1.9-3.4c0.5-1.3,0.7-2.6,0.7-3.9
			c0-1.4-0.2-2.7-0.7-4c-0.5-1.3-1.1-2.4-2-3.4c-0.9-1-1.9-1.8-3.1-2.3C295.5,13.2,294.2,12.9,292.7,12.9z"/>
		<path class="st1" d="M317.8,23.5h7.9c0.9,0,1.7-0.1,2.4-0.3c0.8-0.2,1.4-0.5,2-0.9c0.6-0.4,1-1,1.3-1.6c0.3-0.7,0.5-1.5,0.5-2.4
			c0-0.9-0.2-1.7-0.5-2.3c-0.3-0.6-0.8-1.2-1.3-1.6c-0.6-0.4-1.2-0.7-1.9-0.9c-0.7-0.2-1.5-0.3-2.3-0.3h-3.5h-9V5H325c1,0,2,0,3,0
			s2,0.1,3,0.3c1,0.2,1.9,0.4,2.9,0.8c0.9,0.4,1.8,0.9,2.6,1.5c1.5,1.3,2.6,2.8,3.4,4.5c0.8,1.8,1.1,3.6,1.1,5.6
			c0,1.4-0.2,2.8-0.6,4.1c-0.4,1.3-1,2.5-1.8,3.5s-1.8,1.9-2.9,2.6c-1.1,0.7-2.4,1.2-3.9,1.4l10,12.6H331L317.8,23.5z"/>
		<path class="st1" d="M393.3,4.9v37h-9.4v-23h-0.2l-13.5,22.6V18.9H370l-13.9,23h-11.3l25.4-37h9.3v6.4l4.3-6.4H393.3z"/>
	</g>
</g>
</svg>
