<?xml version="1.0" encoding="utf-8"?>
<!-- Generator: Adobe Illustrator 25.2.1, SVG Export Plug-In . SVG Version: 6.00 Build 0)  -->
<svg version="1.1" id="Layer_1" xmlns="http://www.w3.org/2000/svg" xmlns:xlink="http://www.w3.org/1999/xlink" x="0px" y="0px"
	 viewBox="0 0 595.8 75.3" style="enable-background:new 0 0 595.8 75.3;" xml:space="preserve">
<style type="text/css">
	.st0{enable-background:new    ;}
	.st1{fill:#FFFFFF;}
</style>
<g class="st0">
	<path class="st1" d="M53.2,4.2l-5.2,29.4h2l-0.7,3.9h-2l-2,11.3h-3.9l2-11.3h-15l-1.6,9.1c-0.3,1.8-0.9,3.4-1.9,5
		c-0.9,1.6-2.1,3-3.6,4.2c-1.5,1.2-3.1,2.2-4.8,2.8c-1.7,0.7-3.4,1-5.2,1c-1.8,0-3.4-0.3-4.8-1c-1.5-0.7-2.7-1.6-3.7-2.8
		c-1-1.2-1.7-2.6-2.1-4.2c-0.3-1.6-0.4-3.3-0.1-5c0.3-1.8,0.9-3.4,1.8-5c0.9-1.6,2.1-3,3.6-4.2c1.5-1.3,3.1-2.2,4.7-2.9
		c1.7-0.6,3.4-1,5.2-1H25l3.6-20.3c0.3-1.7,0.9-3.4,1.8-5c0.9-1.6,2.1-3,3.6-4.2c1.5-1.3,3.1-2.2,4.8-2.9c1.7-0.6,3.4-1,5.2-1h11.9
		l-0.7,3.9H53.2z M24.4,37.6h-9.2c-1.2,0-2.4,0.2-3.7,0.7c-1.2,0.5-2.3,1.1-3.3,2c-1,0.9-1.9,1.9-2.6,3c-0.7,1.1-1.1,2.3-1.3,3.5
		c-0.2,1.2-0.2,2.4,0,3.5c0.3,1.1,0.8,2.1,1.5,3c0.7,0.9,1.6,1.6,2.6,2c1,0.5,2.1,0.7,3.4,0.7s2.4-0.2,3.6-0.7
		c1.2-0.5,2.3-1.1,3.4-2c1-0.9,1.8-1.8,2.5-3c0.7-1.1,1.1-2.3,1.3-3.5L24.4,37.6z M49.2,4.2h-5.9c-1.2,0-2.4,0.2-3.6,0.7
		c-1.2,0.5-2.3,1.1-3.4,2c-1,0.9-1.8,1.9-2.5,3c-0.6,1.1-1.1,2.3-1.3,3.5L29,33.6h15L49.2,4.2z"/>
	<path class="st1" d="M67.7,35.6c0,1.9-0.3,3.7-0.9,5.3s-1.4,3-2.3,4.2c-0.9,1.2-1.9,2.1-2.9,2.8c-1.1,0.7-2.1,1-3.2,1
		c-1.1,0-2.1-0.3-2.9-1s-1.4-1.6-1.9-2.8s-0.8-2.6-0.9-4.2c-0.1-1.6,0-3.4,0.4-5.3l6.3-35.4h4l-6.3,35.4c-0.3,1.4-0.4,2.7-0.3,3.9
		c0,1.2,0.2,2.1,0.4,3c0.2,0.8,0.5,1.4,0.9,1.9c0.3,0.4,0.7,0.7,1.1,0.7s0.8-0.2,1.3-0.7c0.5-0.4,1-1.1,1.5-1.9c0.5-0.8,1-1.8,1.4-3
		c0.4-1.1,0.8-2.4,1-3.9H67.7z"/>
	<path class="st1" d="M78.4,35.4c0.2,1.9,0.1,3.7-0.4,5.4c-0.5,1.7-1.2,3.1-2.1,4.3c-0.9,1.2-1.9,2.1-3,2.8c-1.1,0.7-2.2,1-3.3,1
		c-1.1,0-2.1-0.3-2.9-1c-0.8-0.7-1.5-1.6-2-2.8c-0.5-1.2-0.8-2.6-0.9-4.3c-0.1-1.7,0-3.4,0.4-5.4l2-11.4h4.1l-2,11.4
		c-0.3,1.4-0.4,2.7-0.3,3.9c0,1.2,0.2,2.2,0.4,3c0.2,0.8,0.5,1.5,0.9,1.9c0.3,0.5,0.7,0.7,1.1,0.7s0.8-0.2,1.3-0.7
		c0.5-0.5,1-1.1,1.5-1.9c0.5-0.8,1-1.8,1.5-3c0.5-1.2,0.9-2.8,1.3-5L78.4,35.4z M68.7,21c-0.6,0-1.1-0.2-1.4-0.6
		c-0.3-0.4-0.5-0.9-0.3-1.5c0.1-0.6,0.4-1.1,0.9-1.5c0.5-0.4,1-0.6,1.6-0.6c0.6,0,1.1,0.2,1.4,0.6c0.3,0.4,0.4,0.9,0.4,1.5
		c-0.1,0.6-0.4,1.1-0.9,1.5C69.8,20.8,69.3,21,68.7,21z"/>
	<path class="st1" d="M106.1,36.2c-0.4,1.2-0.8,2.1-1.3,2.8c-0.5,0.7-1.1,1.4-1.9,2.2c-0.7,0.8-1.6,1.6-2.6,2.5
		C96,47.2,91.5,49,86.5,49c-1.8,0-3.4-0.3-5-1c-1.5-0.7-2.8-1.6-3.8-2.9c-1.1-1.3-1.8-2.7-2.2-4.3c-0.4-1.6-0.4-3.3-0.1-5.1
		c0.2-0.9,0.4-2,0.8-3.5c0.4-1.4,1.1-2.9,2.1-4.3c0.4-0.6,1-1.3,1.7-1.9c0.7-0.7,1.5-1.3,2.5-1.8c1-0.5,2.1-1,3.4-1.3
		c1.3-0.3,2.8-0.5,4.4-0.5c4.4,0,7.4,1.9,8.8,5.6c0.3,0.8,0.5,1.6,0.6,2.4c0.1,0.8,0.2,1.5,0.2,2.2s0,1.3-0.1,1.9
		c-0.1,0.6-0.1,1-0.2,1.3l-0.3,2H79.3c0.1,1.8,0.6,3.3,1.7,4.6c0.7,0.9,1.6,1.6,2.6,2c1,0.5,2.2,0.7,3.4,0.7c3.9,0,7.5-1.4,10.8-4.1
		c0.8-0.7,1.5-1.3,2.1-2s1.1-1.3,1.5-1.8c0.4-0.6,0.7-1,0.9-1.4c0.2-0.4,0.4-0.6,0.4-0.7L106.1,36.2z M81.6,29.6
		c-0.4,0.6-0.8,1.3-1.1,2c-0.3,0.7-0.5,1.3-0.7,2H96c0-0.7,0-1.5-0.1-2.3c-0.1-0.9-0.4-1.7-0.9-2.4c-0.5-0.7-1.1-1.4-1.9-1.9
		c-0.8-0.5-1.9-0.8-3.3-0.8C85.9,26.2,83.3,27.3,81.6,29.6z"/>
	<path class="st1" d="M134.1,39.1c-0.5,0.1-1.1,0.3-1.7,0.6c-0.7,0.3-1.4,0.7-2.3,1.2c-0.8,0.5-1.6,1.1-2.3,1.8
		c-0.7,0.7-1.4,1.6-2,2.7c-0.6,1-1,2.3-1.3,3.6h-4.3l2.2-12.4c0.5-2.9,0-5.3-1.5-7.3c-0.7-0.9-1.6-1.7-2.6-2.2
		c-1-0.5-2.1-0.8-3.3-0.8c-1.1,0-2.1,0.2-3.2,0.6c-1.1,0.4-2.1,0.9-3,1.7L105.2,49h-4.4l4.3-24.8h3c2.4-1.4,4.9-2.2,7.6-2.2
		c1.8,0,3.5,0.4,5,1.1c1.5,0.7,2.8,1.8,3.9,3.2c1,1.4,1.7,3,2.1,4.7c0.4,1.7,0.4,3.6,0,5.6l-0.4,1.9c0.3-0.3,0.7-0.5,1-0.7
		c0.3-0.2,0.7-0.5,1-0.7c0.8-0.5,1.6-0.9,2.4-1.3c0.8-0.3,1.5-0.6,2.1-0.8c0.6-0.2,1.1-0.3,1.5-0.4c0.4-0.1,0.6-0.1,0.6-0.1l0,2.1
		l0,2.1C134.9,38.9,134.6,38.9,134.1,39.1z"/>
	<path class="st1" d="M186,46.2c-0.1,0.4-0.1,1-0.2,1.7c-0.1,0.3-0.1,0.7-0.2,1.1h-2.1h-25.5l6.9-39.1c-1.5,1.3-3.2,2.3-4.9,3
		c-1.8,0.7-3.6,1-5.4,1l0.7-4.1c1.3,0,2.6-0.2,3.9-0.7c1.2-0.5,2.4-1.2,3.5-2.1c1-0.9,1.9-2,2.6-3.1s1.2-2.4,1.4-3.7h4.1l-7.9,44.8
		h18.8c-0.1-0.7-0.3-1.4-0.7-2.2c-0.3-0.8-0.8-1.6-1.4-2.3c-0.6-0.7-1.4-1.3-2.3-1.8c-0.9-0.5-2.1-0.7-3.5-0.7l0.8-4.1
		c4.9,0,8.2,2.1,10.2,6.3c0.3,0.8,0.6,1.4,0.8,2c0.2,0.6,0.4,1.1,0.4,1.6c0.1,0.5,0.1,0.9,0.2,1.4C186,45.3,186,45.8,186,46.2z"/>
	<path class="st1" d="M204,35.4c0.2,1.9,0.1,3.7-0.4,5.4c-0.5,1.7-1.2,3.1-2.1,4.3c-0.9,1.2-1.9,2.1-3,2.8c-1.1,0.7-2.2,1-3.3,1
		c-1.1,0-2.1-0.3-2.9-1c-0.8-0.7-1.5-1.6-2-2.8c-0.5-1.2-0.8-2.6-0.9-4.3c-0.1-1.7,0-3.4,0.4-5.4l2-11.4h4.1l-2,11.4
		c-0.3,1.4-0.4,2.7-0.3,3.9c0,1.2,0.2,2.2,0.4,3c0.2,0.8,0.5,1.5,0.9,1.9c0.3,0.5,0.7,0.7,1.1,0.7s0.8-0.2,1.3-0.7
		c0.5-0.5,1-1.1,1.5-1.9c0.5-0.8,1-1.8,1.5-3c0.5-1.2,0.9-2.8,1.3-5L204,35.4z M194.2,21c-0.6,0-1.1-0.2-1.4-0.6
		c-0.3-0.4-0.5-0.9-0.3-1.5c0.1-0.6,0.4-1.1,0.9-1.5c0.5-0.4,1-0.6,1.6-0.6c0.6,0,1.1,0.2,1.4,0.6c0.3,0.4,0.4,0.9,0.4,1.5
		c-0.1,0.6-0.4,1.1-0.9,1.5C195.4,20.8,194.8,21,194.2,21z"/>
	<path class="st1" d="M216.2,26.3c-4.1,0-7,1.2-8.7,3.7c-0.5,0.7-0.9,1.4-1.1,2.1c-0.3,0.7-0.5,1.4-0.7,2.1h8.5l-0.8,4.3h-8.6
		l-6.4,36.8h-4.3l6.5-36.9h-2.8c0-0.1,0-0.4,0.1-0.9c0.1-0.5,0.2-0.9,0.3-1.4c0.1-0.6,0.3-1.2,0.4-1.9h2.9c0.1-0.3,0.2-0.6,0.3-1.1
		c0.2-0.5,0.4-1.1,0.6-1.7s0.5-1.2,0.8-1.8c0.3-0.6,0.6-1.2,1-1.6c0.5-0.7,1.1-1.3,1.8-2.1c0.7-0.7,1.6-1.4,2.7-1.9
		c1-0.6,2.2-1.1,3.6-1.4c1.4-0.4,3-0.5,4.7-0.5c0.2,0,0.3,0,0.4,0c0.1,0,0.3,0,0.4,0l-0.8,4.3c-0.1,0-0.3,0-0.4,0
		C216.5,26.3,216.3,26.3,216.2,26.3z"/>
	<path class="st1" d="M247.9,36.2c-0.4,1.2-0.8,2.1-1.3,2.8c-0.5,0.7-1.1,1.4-1.9,2.2c-0.7,0.8-1.6,1.6-2.6,2.5
		c-4.2,3.5-8.8,5.2-13.8,5.2c-1.8,0-3.4-0.3-5-1c-1.5-0.7-2.8-1.6-3.8-2.9c-1.1-1.3-1.8-2.7-2.2-4.3c-0.4-1.6-0.4-3.3-0.1-5.1
		c0.2-0.9,0.4-2,0.8-3.5c0.4-1.4,1.1-2.9,2.1-4.3c0.4-0.6,1-1.3,1.7-1.9c0.7-0.7,1.5-1.3,2.5-1.8c1-0.5,2.1-1,3.4-1.3
		c1.3-0.3,2.8-0.5,4.4-0.5c4.4,0,7.4,1.9,8.8,5.6c0.3,0.8,0.5,1.6,0.6,2.4c0.1,0.8,0.2,1.5,0.2,2.2s0,1.3-0.1,1.9
		c-0.1,0.6-0.1,1-0.2,1.3l-0.3,2h-20.1c0.1,1.8,0.6,3.3,1.7,4.6c0.7,0.9,1.6,1.6,2.6,2c1,0.5,2.2,0.7,3.4,0.7
		c3.9,0,7.5-1.4,10.8-4.1c0.8-0.7,1.5-1.3,2.1-2s1.1-1.3,1.5-1.8c0.4-0.6,0.7-1,0.9-1.4c0.2-0.4,0.4-0.6,0.4-0.7L247.9,36.2z
		 M223.4,29.6c-0.4,0.6-0.8,1.3-1.1,2c-0.3,0.7-0.5,1.3-0.7,2h16.1c0-0.7,0-1.5-0.1-2.3c-0.1-0.9-0.4-1.7-0.9-2.4
		c-0.5-0.7-1.1-1.4-1.9-1.9c-0.8-0.5-1.9-0.8-3.3-0.8C227.7,26.2,225,27.3,223.4,29.6z"/>
	<path class="st1" d="M260.1,26.3c-4.1,0-7,1.2-8.7,3.7c-0.5,0.7-0.9,1.4-1.1,2.1c-0.3,0.7-0.5,1.4-0.7,2.1h8.5l-0.8,4.3h-8.6
		l-6.4,36.8H238l6.5-36.9h-2.8c0-0.1,0-0.4,0.1-0.9c0.1-0.5,0.2-0.9,0.3-1.4c0.1-0.6,0.3-1.2,0.4-1.9h2.9c0.1-0.3,0.2-0.6,0.3-1.1
		c0.2-0.5,0.4-1.1,0.6-1.7s0.5-1.2,0.8-1.8c0.3-0.6,0.6-1.2,1-1.6c0.5-0.7,1.1-1.3,1.8-2.1c0.7-0.7,1.6-1.4,2.7-1.9
		c1-0.6,2.2-1.1,3.6-1.4c1.4-0.4,3-0.5,4.7-0.5c0.2,0,0.3,0,0.4,0c0.1,0,0.3,0,0.4,0l-0.8,4.3c-0.1,0-0.3,0-0.4,0
		C260.4,26.3,260.3,26.3,260.1,26.3z"/>
	<path class="st1" d="M298.3,36.2c-1.6,2.3-3.3,4-5.1,5.2c-1.8,1.2-3.5,2.1-5,2.7c-1.5,0.6-2.9,1-4.1,1.2c-1.2,0.2-2.1,0.3-2.8,0.3
		c-1.4,1.1-2.9,1.9-4.5,2.5c-1.6,0.6-3.3,0.9-5,0.9c-1.8,0-3.5-0.3-5-1c-1.5-0.7-2.8-1.7-3.9-3c-1-1.3-1.8-2.8-2.1-4.4
		c-0.4-1.6-0.4-3.4-0.1-5.2c0.3-1.8,1-3.6,2-5.2c1-1.6,2.2-3.1,3.7-4.4c1.5-1.3,3.1-2.3,4.9-3c1.8-0.7,3.6-1,5.4-1
		c1.8,0,3.5,0.3,5,1c1.5,0.7,2.8,1.7,3.9,3c1,1.3,1.8,2.8,2.2,4.4c0.4,1.6,0.4,3.4,0.1,5.2c-0.3,2-1,3.8-2.1,5.5
		c1.4-0.4,2.9-1.1,4.7-2.1c1.8-1,3.6-2.5,5.5-4.6L298.3,36.2z M272.6,44.9c1.3,0,2.5-0.2,3.8-0.7c1.2-0.5,2.4-1.2,3.4-2.1
		c1.1-0.9,1.9-1.9,2.6-3.1c0.7-1.1,1.1-2.3,1.3-3.6c0.3-1.3,0.2-2.5-0.1-3.6c-0.3-1.1-0.8-2.2-1.5-3.1c-1.5-1.9-3.6-2.8-6.2-2.8
		c-1.3,0-2.6,0.2-3.8,0.7c-1.2,0.5-2.4,1.2-3.4,2.1c-1.1,0.9-1.9,1.9-2.6,3.1c-0.7,1.1-1.1,2.3-1.4,3.6c-0.4,2.6,0.1,4.9,1.6,6.7
		c0.7,0.9,1.6,1.6,2.7,2.1C270.2,44.7,271.3,44.9,272.6,44.9z"/>
	<path class="st1" d="M300.2,23.8c1.5-0.7,3.3-1.3,5.2-1.7c1.9-0.4,4-0.6,6.2-0.6l-0.8,4.4c-1.6,0-3.2,0.1-4.6,0.4
		c-1.4,0.3-2.6,0.6-3.7,1c-1,0.4-1.9,0.8-2.5,1.3s-1,0.9-1.1,1.3L295.5,49h-4.2l4.7-25.3L300.2,23.8L300.2,23.8z"/>
	<path class="st1" d="M335.7,36.6c0.3-1.5,0.4-2.9,0.4-4.2c0-1.2-0.2-2.3-0.4-3.2c-0.3-0.9-0.6-1.6-0.9-2.1
		c-0.4-0.5-0.8-0.7-1.2-0.7s-0.9,0.2-1.4,0.7c-0.6,0.5-1.1,1.2-1.7,2.1c-0.6,0.9-1.1,2-1.6,3.2c-0.5,1.2-0.9,2.6-1.2,4.2L325.5,49
		h-4.4l2.2-12.4c0.3-1.5,0.4-2.9,0.4-4.2c0-1.2-0.2-2.3-0.4-3.2c-0.3-0.9-0.6-1.6-0.9-2.1c-0.4-0.5-0.8-0.7-1.2-0.7
		c-0.4,0-0.8,0.2-1.4,0.7c-0.6,0.5-1.1,1.2-1.7,2.1c-0.6,0.9-1.1,2-1.6,3.2c-0.5,1.2-0.9,2.6-1.2,4.2l-0.1,0.5L313.1,49h-4.4
		l2.1-11.9l0.1-0.5l2.5-13.9h4.4l-0.2,0.9c0.7-0.5,1.4-0.9,2.1-1.2c0.7-0.3,1.4-0.4,2.2-0.4c1.3,0,2.4,0.4,3.3,1.2
		c0.9,0.8,1.6,1.9,2.1,3.4c1-1.4,2.1-2.5,3.3-3.4s2.4-1.2,3.7-1.2c1.2,0,2.2,0.4,3.1,1.1c0.9,0.7,1.6,1.8,2.1,3.1
		c0.5,1.3,0.8,2.9,1,4.6c0.1,1.8,0,3.7-0.4,5.8H335.7z M349.2,38.7c-0.1,0-0.4,0.1-0.9,0.2c-0.5,0.1-1.2,0.3-1.9,0.6
		c-0.8,0.3-1.6,0.7-2.5,1.2c-0.9,0.5-1.7,1.1-2.6,1.9c-0.8,0.7-1.5,1.6-2.2,2.7c-0.6,1.1-1.1,2.3-1.3,3.7h-4.3l2.2-12.4h4.3
		l-0.4,2.2c0.4-0.3,0.9-0.6,1.3-0.9c0.4-0.3,0.9-0.6,1.3-0.8c0.9-0.5,1.7-0.9,2.5-1.3c0.8-0.3,1.5-0.6,2.2-0.8
		c0.6-0.2,1.2-0.4,1.6-0.4c0.4-0.1,0.6-0.1,0.6-0.1v2.2V38.7z"/>
	<path class="st1" d="M378.6,59.8c-1.8,0-3.4-0.3-4.8-1c-1.5-0.7-2.7-1.6-3.7-2.9c-1-1.2-1.7-2.6-2.1-4.2s-0.4-3.3-0.1-5l5.9-33.5
		c0.3-1.8,0.9-3.4,1.9-5c0.9-1.6,2.2-3,3.6-4.2c1.4-1.2,2.9-2.1,4.5-2.8s3.3-1,5-1.1h0.4c1.7,0.1,3.2,0.4,4.6,1.1
		c1.4,0.7,2.6,1.6,3.6,2.8c1,1.2,1.7,2.6,2.1,4.2c0.4,1.6,0.4,3.3,0.1,5c-0.3,1.8-0.9,3.5-1.7,5.1c-0.8,1.7-1.7,3.2-2.7,4.7
		c-1,1.4-2,2.8-3.1,3.9c-1.1,1.2-2,2.1-2.8,2.9l-2.5-2.6c0.7-0.7,1.5-1.5,2.5-2.6c0.9-1,1.8-2.1,2.7-3.4c0.9-1.2,1.6-2.5,2.3-3.9
		c0.7-1.4,1.2-2.8,1.4-4.3c0.2-1.2,0.2-2.4-0.1-3.5c-0.3-1.1-0.8-2.1-1.5-3c-0.7-0.9-1.5-1.5-2.5-2c-1-0.5-2.1-0.7-3.3-0.7
		c-2.5,0.1-4.7,1-6.8,2.7c-1,0.9-1.8,1.8-2.5,3c-0.7,1.1-1.1,2.3-1.3,3.5l-5.9,33.5c-0.2,1.2-0.2,2.4,0.1,3.5c0.3,1.1,0.8,2.1,1.5,3
		c0.7,0.9,1.6,1.6,2.6,2c1,0.5,2.2,0.7,3.4,0.7c2.5,0,4.9-0.9,7-2.7c0.8-0.6,1.4-1.3,1.9-2.1c0.5-0.8,1-1.6,1.3-2.4h-7.6l0.7-4h11.8
		l-0.4,2c-0.3,1.8-0.9,3.4-1.9,5c-0.9,1.6-2.1,3-3.6,4.2c-1.5,1.3-3.1,2.2-4.8,2.9C382.1,59.4,380.3,59.8,378.6,59.8z"/>
	<path class="st1" d="M430,36.2c-0.4,1.2-0.8,2.1-1.3,2.8c-0.5,0.7-1.2,1.4-1.9,2.2c-0.7,0.8-1.6,1.6-2.6,2.5
		c-4.2,3.5-8.8,5.2-13.7,5.2c-1.8,0-3.4-0.3-5-1c-1.5-0.7-2.8-1.6-3.8-2.9c-1.1-1.3-1.8-2.7-2.2-4.3c-0.4-1.6-0.4-3.3-0.1-5.1
		c0.2-0.9,0.4-2,0.8-3.5c0.4-1.4,1.1-2.9,2.1-4.3c0.4-0.6,1-1.3,1.7-1.9c0.7-0.7,1.5-1.3,2.5-1.8c1-0.5,2.1-1,3.4-1.3
		c1.3-0.3,2.8-0.5,4.4-0.5c4.4,0,7.4,1.9,8.8,5.6c0.3,0.8,0.5,1.6,0.6,2.4s0.2,1.5,0.2,2.2s0,1.3-0.1,1.9c-0.1,0.6-0.1,1-0.2,1.3
		l-0.3,2h-20.1c0.1,1.8,0.6,3.3,1.7,4.6c0.7,0.9,1.6,1.6,2.6,2c1,0.5,2.2,0.7,3.4,0.7c3.9,0,7.5-1.4,10.8-4.1c0.8-0.7,1.5-1.3,2.1-2
		s1.1-1.3,1.5-1.8c0.4-0.6,0.7-1,0.9-1.4c0.2-0.4,0.4-0.6,0.4-0.7L430,36.2z M405.5,29.6c-0.4,0.6-0.8,1.3-1.1,2
		c-0.3,0.7-0.5,1.3-0.7,2h16.1c0-0.7,0-1.5-0.1-2.3c-0.1-0.9-0.4-1.7-0.9-2.4c-0.5-0.7-1.1-1.4-1.9-1.9c-0.8-0.5-1.9-0.8-3.3-0.8
		C409.8,26.2,407.1,27.3,405.5,29.6z"/>
	<path class="st1" d="M458,39.1c-0.5,0.1-1.1,0.3-1.7,0.6c-0.7,0.3-1.5,0.7-2.3,1.2c-0.8,0.5-1.6,1.1-2.3,1.8s-1.4,1.6-2,2.7
		c-0.6,1-1,2.3-1.3,3.6h-4.3l2.2-12.4c0.5-2.9,0-5.3-1.5-7.3c-0.7-0.9-1.6-1.7-2.6-2.2c-1-0.5-2.1-0.8-3.3-0.8
		c-1.1,0-2.1,0.2-3.2,0.6c-1.1,0.4-2.1,0.9-3,1.7L429.1,49h-4.4l4.3-24.8h3c2.4-1.4,4.9-2.2,7.6-2.2c1.8,0,3.5,0.4,5,1.1
		c1.5,0.7,2.8,1.8,3.9,3.2c1,1.4,1.7,3,2.1,4.7s0.4,3.6,0,5.6l-0.4,1.9c0.3-0.3,0.7-0.5,1-0.7c0.3-0.2,0.7-0.5,1-0.7
		c0.8-0.5,1.6-0.9,2.4-1.3c0.8-0.3,1.5-0.6,2.1-0.8c0.6-0.2,1.1-0.3,1.5-0.4c0.4-0.1,0.6-0.1,0.6-0.1l0,2.1l0,2.1
		C458.8,38.9,458.5,38.9,458,39.1z"/>
	<path class="st1" d="M486.6,36.2c-0.4,1.2-0.8,2.1-1.3,2.8c-0.5,0.7-1.2,1.4-1.9,2.2c-0.7,0.8-1.6,1.6-2.6,2.5
		c-4.2,3.5-8.8,5.2-13.7,5.2c-1.8,0-3.4-0.3-5-1c-1.5-0.7-2.8-1.6-3.8-2.9c-1.1-1.3-1.8-2.7-2.2-4.3c-0.4-1.6-0.4-3.3-0.1-5.1
		c0.2-0.9,0.4-2,0.8-3.5c0.4-1.4,1.1-2.9,2.1-4.3c0.4-0.6,1-1.3,1.7-1.9c0.7-0.7,1.5-1.3,2.5-1.8c1-0.5,2.1-1,3.4-1.3
		c1.3-0.3,2.8-0.5,4.4-0.5c4.4,0,7.4,1.9,8.8,5.6c0.3,0.8,0.5,1.6,0.6,2.4s0.2,1.5,0.2,2.2s0,1.3-0.1,1.9c-0.1,0.6-0.1,1-0.2,1.3
		l-0.3,2h-20.1c0.1,1.8,0.6,3.3,1.7,4.6c0.7,0.9,1.6,1.6,2.6,2c1,0.5,2.2,0.7,3.4,0.7c3.9,0,7.5-1.4,10.8-4.1c0.8-0.7,1.5-1.3,2.1-2
		s1.1-1.3,1.5-1.8c0.4-0.6,0.7-1,0.9-1.4c0.2-0.4,0.4-0.6,0.4-0.7L486.6,36.2z M462.2,29.6c-0.4,0.6-0.8,1.3-1.1,2
		c-0.3,0.7-0.5,1.3-0.7,2h16.1c0-0.7,0-1.5-0.1-2.3c-0.1-0.9-0.4-1.7-0.9-2.4c-0.5-0.7-1.1-1.4-1.9-1.9c-0.8-0.5-1.9-0.8-3.3-0.8
		C466.5,26.2,463.8,27.3,462.2,29.6z"/>
	<path class="st1" d="M488.8,23.8c1.5-0.7,3.3-1.3,5.2-1.7c1.9-0.4,4-0.6,6.2-0.6l-0.8,4.4c-1.6,0-3.2,0.1-4.6,0.4
		c-1.4,0.3-2.6,0.6-3.7,1c-1,0.4-1.9,0.8-2.5,1.3s-1,0.9-1.1,1.3L484.1,49h-4.2l4.7-25.3L488.8,23.8L488.8,23.8z"/>
	<path class="st1" d="M534.2,34.4l3.3,0.9c0,2-0.3,3.8-1,5.5c-0.7,1.6-1.5,3.1-2.4,4.3c-0.9,1.2-1.9,2.2-3,2.8s-2.2,1-3.3,1
		c-1.3,0-2.5-0.5-3.4-1.5c-0.9-1-1.6-2.3-2-4c-0.3,0.3-0.5,0.5-0.8,0.8c-0.3,0.3-0.5,0.5-0.9,0.8c-1.5,1.3-3.1,2.2-4.8,2.9
		c-1.7,0.7-3.5,1-5.3,1c-1.8,0-3.5-0.3-5-1c-1.5-0.7-2.8-1.6-3.9-2.9c-1-1.3-1.7-2.8-2.1-4.4c-0.4-1.6-0.4-3.4-0.1-5.1
		c0.3-1.8,1-3.5,1.9-5.2c1-1.6,2.2-3.1,3.7-4.3c1.5-1.3,3.1-2.3,4.9-3c1.8-0.7,3.5-1,5.3-1c1.8,0,3.4,0.3,4.9,1
		c1.5,0.7,2.8,1.6,3.8,2.9l0.3-1.8h4.1l-2,11.4c-0.3,1.4-0.4,2.7-0.3,3.9c0,1.2,0.2,2.2,0.4,3c0.2,0.8,0.5,1.5,0.8,1.9
		c0.3,0.5,0.7,0.7,1.1,0.7s0.8-0.2,1.3-0.7c0.5-0.5,1-1.1,1.6-1.9c0.5-0.8,1-1.8,1.5-3c0.5-1.2,0.8-2.5,1.1-3.9L534.2,34.4z
		 M518.6,42.1c1-0.9,1.9-1.9,2.6-3c0.7-1.1,1.1-2.4,1.4-3.6c0.2-1.3,0.2-2.5-0.1-3.6c-0.3-1.1-0.8-2.2-1.5-3.1
		c-1.5-1.8-3.6-2.7-6.2-2.7c-1.3,0-2.5,0.2-3.7,0.7c-1.2,0.5-2.4,1.1-3.4,2.1c-1.1,0.9-1.9,1.9-2.6,3.1c-0.7,1.1-1.1,2.3-1.3,3.6
		c-0.3,1.3-0.2,2.5,0,3.6c0.3,1.2,0.8,2.2,1.6,3c0.7,0.9,1.6,1.6,2.7,2.1c1.1,0.5,2.2,0.7,3.5,0.7c1.3,0,2.5-0.2,3.7-0.7
		C516.4,43.8,517.5,43.1,518.6,42.1z"/>
	<path class="st1" d="M548.7,35.6c0.1,1.9-0.2,3.7-0.9,5.4c-0.7,1.7-1.4,3.1-2.3,4.3c-0.9,1.2-1.8,2.1-2.9,2.8c-1.1,0.7-2.1,1-3.2,1
		s-2.1-0.3-2.9-1c-0.8-0.7-1.5-1.6-2-2.8c-0.5-1.2-0.8-2.6-0.9-4.3c-0.1-1.7,0-3.4,0.4-5.4l3.7-21h-2.6l0.7-4.1h2.6l1.9-10.3h4.1
		l-1.9,10.3h5.5l-0.7,4.1h-5.5l-3.7,21c-0.3,1.4-0.4,2.7-0.3,3.9c0,1.2,0.2,2.2,0.4,3c0.2,0.8,0.5,1.5,0.9,1.9
		c0.3,0.5,0.7,0.7,1.1,0.7s0.8-0.2,1.3-0.7c0.5-0.5,1-1.1,1.6-1.9c0.5-0.8,1-1.8,1.4-3c0.4-1.2,0.8-2.5,1-3.9H548.7z"/>
	<path class="st1" d="M582.6,36.2c-1.6,2.3-3.3,4-5.1,5.2c-1.8,1.2-3.5,2.1-5,2.7c-1.5,0.6-2.9,1-4.1,1.2c-1.2,0.2-2.1,0.3-2.8,0.3
		c-1.4,1.1-2.9,1.9-4.5,2.5s-3.3,0.9-5,0.9c-1.8,0-3.5-0.3-5-1c-1.5-0.7-2.8-1.7-3.9-3c-1-1.3-1.8-2.8-2.1-4.4
		c-0.4-1.6-0.4-3.4-0.1-5.2c0.3-1.8,1-3.6,2-5.2c1-1.6,2.2-3.1,3.7-4.4c1.5-1.3,3.1-2.3,4.9-3c1.8-0.7,3.6-1,5.4-1
		c1.8,0,3.5,0.3,5,1c1.5,0.7,2.8,1.7,3.9,3c1,1.3,1.8,2.8,2.2,4.4c0.4,1.6,0.4,3.4,0.1,5.2c-0.3,2-1,3.8-2.1,5.5
		c1.4-0.4,2.9-1.1,4.7-2.1c1.8-1,3.6-2.5,5.5-4.6L582.6,36.2z M556.9,44.9c1.3,0,2.5-0.2,3.8-0.7s2.4-1.2,3.4-2.1
		c1.1-0.9,1.9-1.9,2.6-3.1c0.7-1.1,1.1-2.3,1.3-3.6c0.3-1.3,0.2-2.5-0.1-3.6c-0.3-1.1-0.8-2.2-1.5-3.1c-1.5-1.9-3.6-2.8-6.2-2.8
		c-1.3,0-2.6,0.2-3.8,0.7c-1.2,0.5-2.4,1.2-3.4,2.1c-1.1,0.9-1.9,1.9-2.6,3.1c-0.7,1.1-1.1,2.3-1.4,3.6c-0.4,2.6,0.1,4.9,1.6,6.7
		c0.7,0.9,1.6,1.6,2.7,2.1C554.5,44.7,555.6,44.9,556.9,44.9z"/>
	<path class="st1" d="M584.5,23.8c1.5-0.7,3.3-1.3,5.2-1.7c1.9-0.4,4-0.6,6.2-0.6l-0.8,4.4c-1.6,0-3.2,0.1-4.6,0.4
		c-1.4,0.3-2.6,0.6-3.7,1c-1,0.4-1.9,0.8-2.5,1.3s-1,0.9-1.1,1.3L579.8,49h-4.2l4.7-25.3L584.5,23.8L584.5,23.8z"/>
</g>
</svg>
